<svg xmlns="http://www.w3.org/2000/svg" xmlns:xlink="http://www.w3.org/1999/xlink" version="1.1" x="0px" y="0px" width="270.741px" height="263.896px" viewBox="0 0 270.741 263.896" enable-background="new 0 0 270.741 263.896" xml:space="preserve" style="fill: red"><path d="M270.741,94.195L210.5,65.19L195.617,0l-60.191,29.044L75.113,0.006L60.21,65.322L0,94.207l41.692,52.279l-14.871,65.168  H93.68l41.701,52.241l41.693-52.241h66.865l-14.885-65.179L270.741,94.195z M261.198,96.374l-74.075,92.873l-13.608-0.236  l69.554-87.09L215.9,88.839l-3.659-16.037L261.198,96.374z M214.092,189.271h-19.185l14.913-18.706L214.092,189.271z   M105.022,188.963l-37.803-47.191l13.465-58.648l54.678-26.158l54.696,26.319l13.486,58.56l-37.819,47.118H105.022z M60.93,170.584  l14.905,18.687H56.666L60.93,170.584z M217.637,96.449l15.889,7.649l-10.992,13.787L217.637,96.449z M191.371,8.818l26.298,115.169  l-9.291,11.65L183.301,26.98l-26.054,12.548l-14.82-7.088L191.371,8.818z M182.704,51.783l-18.419-8.871l14.771-7.113  L182.704,51.783z M79.36,8.825l105.096,50.577l3.883,16.283L87.435,26.985l-6.433,28.186l-13.725,6.612L79.36,8.825z M106.45,42.917  l-18.416,8.868l3.647-15.98L106.45,42.917z M9.548,96.395l103.927-50.087l14.875,7.249L27.677,101.932l18.794,23.562l-3.05,13.371  L9.548,96.395z M37.22,104.11l15.876-7.646l-4.888,21.42L37.22,104.11z M60.129,93.077l13.503-6.505L49.014,195.375l31.689,0  l8.123,10.177l-54.352,0L60.129,93.077z M135.38,254.113l-72.729-91.158l2.894-13.512l69.836,87.482l20.196-25.297h13.709  L135.38,254.113z M122.99,211.628l24.778,0l-12.388,15.517L122.99,211.628z M236.285,205.552l-118.168-0.026l-8.35-10.46  l111.98,0.309l-7.06-30.912l9.496-11.905L236.285,205.552z"/></svg>
